<svg xmlns="http://www.w3.org/2000/svg" viewBox="0 0 80 32" fill="none">
  <rect x="0" y="4" width="24" height="24" rx="6" fill="#635BFF"/>
  <path d="M12 10c-2 0-3.5 1-3.5 2.8 0 3.4 4.8 2.8 4.8 4.4 0 .7-.6 1.1-1.6 1.1-1.4 0-2.8-.6-3.8-1.5v3c1 .5 2.3.8 3.8.8 2.2 0 3.8-1.1 3.8-3 0-3.3-4.8-2.8-4.8-4.3 0-.6.5-1 1.4-1 1.2 0 2.4.5 3.3 1.2v-2.8C14.5 10.3 13.3 10 12 10z" fill="white"/>
  <text x="30" y="23" font-family="Arial,sans-serif" font-weight="700" font-size="16" fill="#635BFF">stripe</text>
</svg>
